# xmcd
#
# Track frame offsets:
#	150
#	19400
#	37312
#	55916
#	75271
#	92608
#	106445
#	122251
#	135597
#	153728
#	169225
#	185878
#	200880
#	217287
#	234055
#	247879
#	263335
#	281996
#	297068
#	314072
#	329263
#
# Disc length: 4587 seconds
#
# Revision: 2
# Processed by: cddbd v1.5.2PL0 Copyright (c) Steve Scherf et al.
# Submitted via: EasyCDDAExtractor 11.5.0.1
#
DISCID=3a11e915
DTITLE=Various Artist - NCT 072
DYEAR=2005
DGENRE=Country
TTITLE0=George Stait - You'll Be There
TTITLE1=Keith Urban - Making Memories Of Us
TTITLE2=Van Zant - Help Somebody
TTITLE3=Miranda Lambert - Bring Me Down
TTITLE4=Blue Country - That Summer Song
TTITLE5=Alan Jackson - The Talkin' Song Repair Blues
TTITLE6=Tracy Byrd - Tiny Town
TTITLE7=Lauren Lucas - What You Ain't Gonna Get
TTITLE8=Reba McEntire - My Sister
TTITLE9=Hot Apple Pie - Hillbillies
TTITLE10=LeAnn Rhimes - Probably Wouldn't Be This Way
TTITLE11=Steve Holy - Go Home
TTITLE12=Jason Aldean - Hicktown
TTITLE13=Neal McCoy - Billy's Got His Beer Goggles On
TTITLE14=Amanda Wilkinson - No More Me And You
TTITLE15=Cledus T. Judd - Paycheck Woman
TTITLE16=Rebecca Lynn Howard - No One'll Ever Love Me
TTITLE17=Cowboy Troy - I Play Chicken With The Train
TTITLE18=Jamie O'Neal - Somebody's Hero
TTITLE19=Glenn Cummings - Good Old Days
TTITLE20=Doug Stone - Only You (And You Alone)
EXTD=
EXTT0=
EXTT1=
EXTT2=
EXTT3=
EXTT4=
EXTT5=
EXTT6=
EXTT7=
EXTT8=
EXTT9=
EXTT10=
EXTT11=
EXTT12=
EXTT13=
EXTT14=
EXTT15=
EXTT16=
EXTT17=
EXTT18=
EXTT19=
EXTT20=
PLAYORDER=
